<svg width="32" height="32" viewBox="0 0 32 32" xmlns="http://www.w3.org/2000/svg">
  <defs>
    <!-- Dégradés modernes -->
    <linearGradient id="nGradient" x1="0%" y1="0%" x2="100%" y2="100%">
      <stop offset="0%" style="stop-color:#6366f1;stop-opacity:1" />
      <stop offset="100%" style="stop-color:#4338ca;stop-opacity:1" />
    </linearGradient>
    <linearGradient id="qGradient" x1="0%" y1="0%" x2="100%" y2="100%">
      <stop offset="0%" style="stop-color:#f59e0b;stop-opacity:1" />
      <stop offset="100%" style="stop-color:#d97706;stop-opacity:1" />
    </linearGradient>
    <linearGradient id="backgroundGradient" x1="0%" y1="0%" x2="100%" y2="100%">
      <stop offset="0%" style="stop-color:#1e293b;stop-opacity:1" />
      <stop offset="100%" style="stop-color:#0f172a;stop-opacity:1" />
    </linearGradient>
    
    <!-- Effets visuels -->
    <filter id="glow" x="-50%" y="-50%" width="200%" height="200%">
      <feGaussianBlur stdDeviation="2" result="coloredBlur"/>
      <feMerge> 
        <feMergeNode in="coloredBlur"/>
        <feMergeNode in="SourceGraphic"/>
      </feMerge>
    </filter>
    <filter id="shadow" x="-50%" y="-50%" width="200%" height="200%">
      <feDropShadow dx="0" dy="3" stdDeviation="3" flood-color="#000000" flood-opacity="0.3"/>
    </filter>
  </defs>
  
  <!-- Arrière-plan avec dégradé sombre moderne -->
  <rect width="32" height="32" fill="url(#backgroundGradient)" rx="8"/>
  
  <!-- Effet de lumière d'ambiance -->
  <circle cx="16" cy="10" r="15" fill="#6366f1" opacity="0.1"/>
  
  <!-- Lettre N moderne et stylisée -->
  <g filter="url(#shadow)">
    <path d="M6 8 L6 24 L8.5 24 L8.5 14.5 L13.5 24 L16 24 L16 8 L13.5 8 L13.5 17.5 L8.5 8 Z" 
          fill="url(#nGradient)" 
          stroke="#8b5cf6" 
          stroke-width="0.3"/>
  </g>
  
  <!-- Lettre Q avec design unique et moderne -->
  <g filter="url(#shadow)">
    <!-- Corps principal du Q -->
    <path d="M18 16 C18 12 20.5 9.5 23.5 9.5 C26.5 9.5 29 12 29 16 C29 18.5 27.8 20.5 26.2 21.5 L27.5 23.2 C27.8 23.6 27.6 24.2 27.1 24.2 L25.8 24.2 C25.6 24.2 25.4 24.1 25.3 23.9 L23.8 22 C23.7 22 23.6 22 23.5 22 C20.5 22 18 19.5 18 16 Z" 
          fill="url(#qGradient)" 
          stroke="#fb923c" 
          stroke-width="0.3"/>
    
    <!-- Trou intérieur du Q -->
    <circle cx="23.5" cy="16" r="3" fill="url(#backgroundGradient)"/>
    
    <!-- Point lumineux à l'intérieur -->
    <circle cx="23.5" cy="15.5" r="1" fill="#fbbf24" filter="url(#glow)"/>
  </g>
  
  <!-- Élément de connexion moderne entre N et Q -->
  <path d="M15.5 16 Q16.5 15 17.5 16" 
        stroke="#8b5cf6" 
        stroke-width="1.5" 
        fill="none" 
        stroke-linecap="round" 
        opacity="0.7"/>
  
  <!-- Particules lumineuses décoratives -->
  <g filter="url(#glow)">
    <circle cx="10" cy="6" r="0.8" fill="#f59e0b" opacity="0.8"/>
    <circle cx="26" cy="7" r="0.6" fill="#6366f1" opacity="0.6"/>
    <circle cx="8" cy="26" r="0.5" fill="#f59e0b" opacity="0.4"/>
    <circle cx="28" cy="28" r="0.7" fill="#6366f1" opacity="0.5"/>
  </g>
  
  <!-- Ligne de base moderne -->
  <rect x="6" y="30" width="20" height="0.8" fill="#334155" rx="0.4" opacity="0.6"/>
  
  <!-- Reflet subtil pour l'effet premium -->
  <rect x="0" y="0" width="32" height="12" 
        fill="linear-gradient(180deg, rgba(255,255,255,0.1) 0%, transparent 100%)" 
        rx="8"/>
</svg>